<?xml version="1.0" standalone="no"?>
<!DOCTYPE svg PUBLIC "-//W3C//DTD SVG 20010904//EN"
 "http://www.w3.org/TR/2001/REC-SVG-20010904/DTD/svg10.dtd">
<svg version="1.0" xmlns="http://www.w3.org/2000/svg"
 width="512.000000pt" height="512.000000pt" viewBox="0 0 512.000000 512.000000"
 preserveAspectRatio="xMidYMid meet">

<g transform="translate(0.000000,512.000000) scale(0.100000,-0.100000)"
fill="#dbdbe1" stroke="none">
<path d="M2315 5109 c-1080 -111 -1977 -887 -2238 -1934 -58 -232 -71 -349
-71 -615 0 -177 4 -265 18 -355 145 -950 773 -1720 1681 -2057 119 -44 363
-104 510 -125 180 -25 511 -25 690 1 1036 147 1885 910 2138 1921 55 219 72
366 72 615 0 249 -17 396 -72 615 -229 917 -957 1643 -1873 1869 -80 19 -192
43 -250 51 -126 19 -479 27 -605 14z m315 -619 c70 -36 80 -70 80 -280 0 -161
-2 -185 -20 -220 -23 -45 -80 -80 -130 -80 -50 0 -107 35 -130 80 -18 35 -20
58 -20 222 1 209 8 233 76 274 48 29 92 30 144 4z m-1270 -528 c49 -26 84 -97
75 -153 -10 -56 -68 -114 -124 -124 -56 -9 -127 26 -153 75 -69 132 70 271
202 202z m2548 -2 c101 -62 95 -205 -11 -258 -63 -32 -114 -24 -166 26 -53 51
-62 104 -29 169 39 78 133 107 206 63z m-1278 -370 c26 -13 47 -34 60 -60 19
-37 20 -58 20 -472 l0 -433 431 -430 c237 -237 439 -447 450 -467 24 -48 24
-89 -1 -138 -23 -45 -80 -80 -130 -80 -17 0 -47 9 -68 19 -46 24 -944 924
-966 968 -14 28 -16 92 -16 515 1 543 -1 528 76 574 48 29 92 30 144 4z
m-1500 -900 c45 -23 80 -80 80 -130 0 -50 -35 -107 -80 -130 -35 -18 -59 -20
-221 -20 -169 0 -184 1 -221 22 -101 57 -102 194 -2 254 37 23 47 24 222 24
164 0 187 -2 222 -20z m3300 0 c45 -23 80 -80 80 -130 0 -50 -35 -107 -80
-130 -35 -18 -59 -20 -221 -20 -169 0 -184 1 -221 22 -101 57 -102 194 -2 254
37 23 47 24 222 24 164 0 187 -2 222 -20z m-3069 -1270 c40 -22 73 -80 73
-129 0 -88 -63 -151 -149 -151 -152 0 -200 207 -64 278 45 24 97 24 140 2z
m2539 -2 c135 -70 87 -278 -65 -278 -60 0 -106 29 -133 83 -30 59 -23 113 20
163 49 55 110 66 178 32z m-1270 -228 c70 -36 80 -70 80 -280 0 -210 -10 -244
-80 -280 -51 -26 -93 -25 -142 2 -70 39 -78 69 -78 278 0 161 2 185 20 220 37
73 124 99 200 60z"/>
</g>
</svg>
