<?xml version="1.0" standalone="no"?>
<!DOCTYPE svg PUBLIC "-//W3C//DTD SVG 20010904//EN"
 "http://www.w3.org/TR/2001/REC-SVG-20010904/DTD/svg10.dtd">
<svg version="1.0" xmlns="http://www.w3.org/2000/svg"
 width="512.000000pt" height="512.000000pt" viewBox="0 0 512.000000 512.000000"
 preserveAspectRatio="xMidYMid meet">

<g transform="translate(0.000000,512.000000) scale(0.100000,-0.100000)"
fill="#3c3e72" >
<path stroke="#3c3e72" stroke-width="30" d="M1126 5104 c-12 -11 -16 -35 -16 -84 0 -73 14 -100 50 -100 36 0 50
27 50 100 0 73 -14 100 -50 100 -10 0 -26 -7 -34 -16z"/>
<path stroke="#3c3e72" stroke-width="30"  d="M1326 5104 c-12 -11 -16 -35 -16 -84 0 -73 14 -100 50 -100 36 0 50
27 50 100 0 73 -14 100 -50 100 -10 0 -26 -7 -34 -16z"/>
<path stroke="#3c3e72" stroke-width="30" d="M1526 5104 c-12 -11 -16 -35 -16 -84 0 -73 14 -100 50 -100 36 0 50
27 50 100 0 73 -14 100 -50 100 -10 0 -26 -7 -34 -16z"/>
<path stroke="#3c3e72" stroke-width="30"  d="M2903 4966 c-26 -21 -33 -37 -38 -79 -8 -62 8 -167 36 -242 37 -98
146 -184 255 -201 33 -5 53 -17 98 -63 l57 -57 -126 -134 c-71 -76 -129 -148
-135 -166 -23 -69 22 -148 95 -164 63 -14 92 3 244 145 l144 134 142 -133
c153 -144 185 -163 249 -145 38 10 82 57 92 95 15 59 -3 90 -136 231 l-129
138 52 52 c42 43 63 56 110 68 193 50 287 184 287 407 0 110 -45 150 -147 129
-31 -6 -94 -11 -140 -11 -48 0 -98 -6 -116 -14 -71 -29 -137 -121 -163 -228
-13 -53 -25 -74 -58 -107 l-42 -41 -45 48 c-36 37 -49 61 -63 112 -25 93 -80
175 -141 208 -20 10 -71 19 -150 23 -66 4 -138 11 -160 14 -35 6 -45 3 -72
-19z m222 -96 c52 -1 99 -6 112 -13 34 -19 71 -75 90 -134 l17 -54 -65 -65
c-61 -63 -66 -65 -103 -59 -75 11 -142 60 -177 128 -20 38 -37 140 -31 189 3
25 5 26 35 17 18 -5 72 -9 122 -9z m965 -124 c-17 -85 -57 -138 -131 -175 -34
-17 -71 -31 -83 -31 -12 0 -48 27 -87 66 -66 66 -67 67 -57 103 16 57 44 106
78 135 29 24 39 26 128 27 53 1 111 4 127 8 29 6 30 5 33 -37 2 -24 -2 -67 -8
-96z m-643 -225 l42 -48 -43 -42 c-23 -22 -46 -41 -52 -41 -5 0 -30 20 -54 45
l-44 45 44 45 c24 25 49 45 55 45 5 0 29 -22 52 -49z m273 4 l44 -45 -39 -40
-39 -40 -43 42 c-24 23 -43 47 -43 52 0 11 60 76 70 76 3 0 26 -20 50 -45z
m-9 -307 c84 -90 166 -177 181 -194 31 -33 30 -64 -2 -64 -9 0 -104 82 -209
181 l-192 181 27 29 c15 16 31 29 35 29 3 0 75 -73 160 -162z m-280 16 l24
-25 -130 -124 c-88 -84 -136 -124 -150 -122 -45 5 -26 38 95 167 67 72 125
130 129 130 4 0 18 -12 32 -26z"/>
<path stroke="#3c3e72" stroke-width="30" d="M924 4801 c-37 -23 -54 -65 -54 -137 0 -125 49 -249 135 -343 l55
-58 -38 -7 c-47 -7 -71 -32 -79 -79 -11 -72 44 -163 122 -198 35 -16 70 -19
295 -19 225 0 260 3 295 19 78 35 133 126 122 198 -8 48 -32 72 -79 79 -36 6
-38 8 -23 24 13 14 37 19 118 22 119 4 170 24 236 90 53 54 75 111 69 182 -8
101 -86 165 -200 166 -48 0 -58 3 -63 21 -4 11 -21 29 -38 40 -30 18 -55 19
-437 19 -380 0 -407 -1 -436 -19z m824 -129 c8 -105 -36 -211 -123 -298 -80
-81 -147 -108 -265 -108 -118 0 -185 27 -265 108 -63 63 -97 123 -115 198 -11
50 -13 132 -3 141 4 4 178 6 387 5 l381 -3 3 -43z m227 -57 c74 -73 -31 -215
-159 -215 l-35 0 24 55 c13 30 30 84 36 120 l12 65 49 0 c39 0 54 -5 73 -25z
m-300 -477 c-4 -13 -18 -34 -31 -48 l-24 -25 -261 0 -261 0 -29 33 c-57 63
-64 62 292 62 l320 0 -6 -22z"/>
<path stroke="#3c3e72" stroke-width="30" d="M2330 3731 c-129 -19 -235 -74 -330 -170 -123 -125 -170 -256 -170
-477 0 -131 -1 -134 -30 -181 -52 -81 -63 -155 -35 -234 31 -86 101 -150 191
-173 46 -12 48 -14 60 -60 30 -115 125 -253 219 -317 29 -20 35 -30 35 -60 0
-32 -3 -37 -28 -42 -18 -4 -54 -33 -99 -80 -38 -41 -74 -77 -79 -80 -6 -3 -78
-24 -162 -46 -276 -74 -329 -115 -526 -416 -212 -322 -209 -317 -202 -367 6
-38 3 -47 -21 -76 l-28 -33 -185 87 c-102 48 -196 97 -209 108 -22 20 -23 25
-17 106 6 76 4 90 -16 130 -53 104 -176 120 -223 30 -18 -35 -35 -38 -60 -10
-9 10 -37 27 -61 36 -63 24 -125 12 -175 -33 -34 -31 -44 -50 -74 -147 -48
-156 -49 -162 -35 -211 20 -72 61 -104 199 -159 167 -66 186 -77 531 -301 165
-108 316 -203 335 -211 44 -18 133 -18 178 1 57 23 89 57 192 200 84 116 102
135 125 135 36 0 65 24 125 104 l50 67 5 -396 5 -397 33 -29 32 -29 680 0 680
0 32 29 33 29 5 397 5 396 50 -67 c60 -80 89 -104 125 -104 23 0 41 -19 125
-135 103 -143 135 -177 192 -200 49 -21 139 -19 188 4 22 10 173 105 335 211
339 221 355 230 521 296 138 55 179 87 199 159 14 49 13 55 -35 211 -30 97
-40 116 -74 147 -50 45 -112 57 -175 33 -24 -9 -52 -26 -61 -36 -25 -28 -42
-25 -60 10 -47 90 -170 74 -223 -30 -20 -40 -22 -54 -16 -130 6 -81 5 -86 -17
-106 -13 -11 -107 -60 -209 -108 l-185 -88 -28 34 c-24 29 -27 38 -21 76 7 50
10 45 -202 367 -197 301 -250 342 -526 416 -84 22 -156 43 -162 46 -5 3 -40
39 -78 79 -44 46 -80 75 -99 79 -26 6 -29 11 -29 43 0 31 6 41 35 61 97 66
204 225 221 328 6 39 8 41 49 47 23 4 63 20 87 35 125 79 162 227 89 356 l-31
55 0 209 c0 244 -9 285 -85 368 -66 74 -132 106 -231 111 -49 3 -96 0 -119 -8
-36 -12 -38 -11 -73 23 -21 20 -64 48 -97 63 -53 25 -73 28 -185 30 -69 1
-150 -1 -180 -5z m355 -601 c21 -34 233 -110 307 -110 l28 0 0 -252 c0 -139
-5 -272 -10 -295 -30 -129 -131 -254 -252 -312 -262 -124 -583 29 -647 310 -6
24 -11 143 -11 264 l0 220 113 0 c86 1 128 6 182 22 81 26 175 79 225 129 36
35 54 42 65 24z m-685 -380 c0 -104 -4 -160 -10 -160 -26 0 -93 44 -110 72
-42 69 -37 137 12 194 32 37 59 52 91 53 15 1 17 -13 17 -159z m1217 118 c58
-56 67 -134 23 -205 -17 -29 -84 -73 -110 -73 -6 0 -10 56 -10 161 l0 162 32
-7 c18 -3 47 -21 65 -38z m-729 -849 c68 -11 164 -4 238 17 19 5 22 1 26 -38
5 -43 5 -44 -81 -130 -63 -65 -92 -88 -111 -88 -19 0 -48 23 -111 88 -86 86
-86 87 -81 130 4 39 7 43 26 38 11 -3 54 -11 94 -17z m-130 -202 l92 -93 -38
-37 -38 -37 -94 95 -94 95 34 35 c19 19 37 35 40 35 3 0 47 -42 98 -93z m542
58 l34 -35 -94 -95 -94 -95 -38 37 -38 37 92 93 c51 51 95 93 98 93 3 0 21
-16 40 -35z m-674 -220 c60 -58 117 -108 127 -111 35 -11 71 8 139 73 l68 66
68 -65 c72 -69 98 -84 139 -73 14 3 74 54 134 112 l108 105 173 -46 c178 -49
231 -72 301 -135 38 -34 346 -488 353 -521 3 -10 -57 -61 -165 -142 -94 -71
-173 -128 -178 -128 -4 1 -46 53 -93 116 -102 137 -121 157 -151 152 -50 -7
-51 -18 -45 -505 l6 -453 -645 0 -645 0 0 453 c0 482 -2 499 -49 505 -30 5
-49 -15 -151 -152 -47 -63 -89 -115 -93 -116 -5 0 -84 57 -177 128 -111 83
-168 132 -166 142 7 33 314 487 353 521 69 62 122 86 288 132 88 25 167 45
176 46 8 0 65 -46 125 -104z m-1622 -337 c12 -17 14 -39 9 -108 -5 -75 -3 -91
16 -127 13 -27 36 -51 63 -67 88 -51 428 -206 452 -206 24 0 41 16 104 98 l17
23 127 -97 128 -97 -22 -31 c-114 -162 -189 -254 -217 -265 -70 -29 -95 -18
-433 202 -344 224 -367 237 -520 297 -182 73 -183 75 -133 236 27 86 42 118
60 130 28 18 76 12 96 -12 53 -64 168 -54 204 16 18 36 29 37 49 8z m3961 -8
c36 -70 151 -80 204 -16 20 24 68 30 96 12 18 -12 33 -44 60 -130 50 -161 49
-163 -133 -236 -154 -60 -177 -74 -520 -297 -414 -270 -406 -269 -546 -79 -45
61 -92 125 -104 142 l-21 31 127 97 127 97 18 -23 c62 -81 79 -98 103 -98 24
0 366 156 452 206 27 16 50 40 63 67 19 36 21 52 16 127 -5 69 -3 91 9 108 20
29 31 28 49 -8z"/>
<path stroke="#3c3e72" stroke-width="30" d="M2305 2795 c-28 -27 -30 -42 -14 -79 22 -46 93 -51 125 -8 19 25 17
56 -7 86 -27 34 -71 35 -104 1z"/>
<path stroke="#3c3e72" stroke-width="30" d="M2711 2794 c-24 -30 -26 -61 -7 -86 32 -43 103 -38 125 8 16 37 14
52 -14 79 -33 34 -77 33 -104 -1z"/>
<path stroke="#3c3e72" stroke-width="30" d="M2380 2480 c-28 -28 -25 -48 15 -85 90 -86 254 -84 348 3 31 30 35
62 9 85 -25 23 -33 22 -77 -13 -66 -52 -144 -52 -210 0 -44 35 -58 37 -85 10z"/>
<path stroke="#3c3e72" stroke-width="30" d="M4338 3355 c-158 -34 -294 -68 -303 -75 -13 -11 -15 -57 -15 -320 l0
-308 -42 15 c-102 35 -219 -31 -249 -139 -49 -185 175 -324 323 -200 63 53 68
77 68 374 l0 268 23 5 c12 3 108 23 212 46 105 22 207 44 228 48 l37 9 0 -149
0 -149 -26 10 c-34 13 -116 13 -151 -1 -40 -15 -82 -57 -104 -104 -60 -129 36
-275 181 -275 88 0 160 53 189 139 15 45 16 824 1 852 -16 29 -52 24 -372 -46z
m272 -115 c0 -33 -2 -60 -5 -60 -5 0 -420 -88 -453 -97 -22 -5 -23 -4 -20 58
l3 63 215 47 c118 26 225 48 238 48 20 1 22 -3 22 -59z m-29 -569 c21 -22 29
-39 29 -66 0 -27 -8 -44 -29 -66 -37 -37 -79 -38 -119 -4 -38 32 -47 67 -27
109 29 62 98 74 146 27z m-609 -112 c26 -14 49 -69 41 -100 -15 -61 -79 -92
-132 -65 -37 20 -51 44 -51 89 0 67 79 110 142 76z"/>
<path stroke="#3c3e72" stroke-width="30" d="M433 3390 c-95 -17 -163 -49 -185 -86 -19 -32 -23 -34 -78 -34 -48 0
-64 -5 -87 -24 l-28 -24 0 -411 0 -411 28 -27 27 -28 645 0 645 0 27 28 28 27
0 411 0 411 -28 24 c-23 19 -39 24 -87 24 -55 0 -59 2 -78 34 -15 25 -34 39
-76 55 -126 47 -262 48 -383 3 -46 -17 -48 -17 -112 5 -78 26 -186 35 -258 23z
m220 -117 l47 -15 0 -304 0 -305 -37 8 c-50 11 -237 10 -290 0 l-43 -9 0 301
0 300 30 16 c68 35 196 39 293 8z m406 16 c35 -5 77 -17 92 -25 l29 -15 0
-300 0 -301 -42 9 c-54 10 -241 11 -290 0 l-38 -8 0 305 0 304 48 16 c26 8 63
17 82 19 19 2 40 4 45 5 6 1 39 -3 74 -9z m-827 -408 l3 -289 24 -26 c29 -31
55 -32 143 -10 89 23 213 15 293 -19 57 -24 62 -24 95 -10 101 45 220 55 323
28 82 -21 110 -19 138 11 l24 26 3 289 3 289 34 0 35 0 0 -360 0 -360 -595 0
-595 0 0 360 0 360 35 0 34 0 3 -289z"/>
<path stroke="#3c3e72" stroke-width="30" d="M467 3200 c-48 -6 -67 -20 -67 -51 0 -34 32 -48 115 -48 59 0 84 4
97 16 20 18 23 40 9 62 -11 18 -90 28 -154 21z"/>
<path stroke="#3c3e72" stroke-width="30" d="M416 3014 c-9 -8 -16 -24 -16 -34 0 -38 27 -50 114 -50 68 0 86 3 99
18 22 24 21 45 -1 65 -26 24 -173 24 -196 1z"/>
<path stroke="#3c3e72" stroke-width="30" d="M417 2842 c-21 -23 -22 -46 -1 -66 11 -12 36 -16 99 -16 88 0 115 12
115 49 0 37 -32 51 -117 51 -65 0 -83 -3 -96 -18z"/>
<path stroke="#3c3e72" stroke-width="30" d="M937 3200 c-48 -6 -67 -20 -67 -51 0 -34 32 -48 115 -48 59 0 84 4
97 16 20 18 23 40 9 62 -11 18 -90 28 -154 21z"/>
<path stroke="#3c3e72" stroke-width="30" d="M886 3014 c-9 -8 -16 -24 -16 -34 0 -38 27 -50 114 -50 68 0 86 3 99
18 22 24 21 45 -1 65 -26 24 -173 24 -196 1z"/>
<path stroke="#3c3e72" stroke-width="30" d="M887 2842 c-21 -23 -22 -46 -1 -66 11 -12 36 -16 99 -16 88 0 115 12
115 49 0 37 -32 51 -117 51 -65 0 -83 -3 -96 -18z"/>
</g>
</svg>
