<?xml version="1.0" standalone="no"?>
<!DOCTYPE svg PUBLIC "-//W3C//DTD SVG 20010904//EN"
 "http://www.w3.org/TR/2001/REC-SVG-20010904/DTD/svg10.dtd">
<svg version="1.0" xmlns="http://www.w3.org/2000/svg"
 width="100.000000pt" height="100.000000pt" viewBox="0 0 100.000000 100.000000"
 preserveAspectRatio="xMidYMid meet">

<g transform="translate(0.000000,100.000000) scale(0.100000,-0.100000)"
fill="#3c3e72" stroke="none">
<path d="M80 880 c0 -20 6 -20 410 -20 l410 0 0 -320 0 -320 -260 0 c-253 0
-260 -1 -260 -20 0 -19 8 -20 277 -22 255 -3 278 -4 281 -21 3 -16 -15 -17
-277 -17 -275 0 -281 0 -281 -20 0 -20 5 -20 298 -18 l297 3 3 34 c2 23 -3 40
-17 55 -20 21 -21 34 -23 362 l-3 339 -427 3 c-423 2 -428 2 -428 -18z"/>
<path d="M112 760 c-70 -43 -92 -128 -49 -191 57 -86 178 -88 233 -4 77 118
-64 268 -184 195z m117 -34 c47 -25 63 -83 37 -135 -35 -66 -137 -66 -172 0
-47 91 44 182 135 135z"/>
<path d="M400 760 c0 -19 7 -20 120 -20 113 0 120 1 120 20 0 19 -7 20 -120
20 -113 0 -120 -1 -120 -20z"/>
<path d="M700 760 c0 -18 7 -20 70 -20 63 0 70 2 70 20 0 18 -7 20 -70 20 -63
0 -70 -2 -70 -20z"/>
<path d="M400 660 c0 -19 7 -20 220 -20 213 0 220 1 220 20 0 19 -7 20 -220
20 -213 0 -220 -1 -220 -20z"/>
<path d="M484 498 c-25 -35 -48 -65 -50 -67 -1 -2 -32 4 -67 14 -46 12 -91 16
-170 13 -105 -3 -107 -3 -139 -36 l-33 -32 -3 -145 c-3 -141 -3 -145 17 -145
20 0 21 5 21 135 0 131 1 137 25 160 22 23 31 25 128 25 79 0 118 -5 167 -22
l63 -21 24 29 c13 16 36 48 51 71 30 48 72 61 72 23 0 -16 -72 -131 -117 -190
-2 -2 -34 4 -71 13 -109 28 -102 35 -102 -103 0 -113 1 -120 20 -120 19 0 20
7 20 100 l0 99 48 -14 c95 -29 101 -26 200 122 62 92 51 153 -26 153 -28 0
-38 -9 -78 -62z"/>
</g>
</svg>
